<svg width="24" height="24" viewBox="0 0 24 24" fill="none" xmlns="http://www.w3.org/2000/svg">
  <mask id="mask0" mask-type="alpha" maskUnits="userSpaceOnUse" x="0" y="0" width="24" height="24">
    <rect width="24" height="24" rx="12" fill="#DA9494"/>
  </mask>
  <g mask="url(#mask0)">
    <rect width="24" height="24" rx="12" fill="#E6E8EF"/>
    <path fill-rule="evenodd" clip-rule="evenodd" d="M20.2375 8.06145V8.06094L17.3662 8.61225C17.138 8.65469 16.9098 8.68548 16.6816 8.70462C16.4956 8.7201 16.3096 8.72783 16.1236 8.72783C15.8885 8.72783 15.6544 8.73749 15.4212 8.75695C14.2539 8.85369 13.1108 9.19587 11.9902 9.80029C10.647 9.07568 9.2715 8.72783 7.86077 8.72783C7.44497 8.72783 7.0293 8.68917 6.6135 8.61185L3.74219 8.06055V11.2907C3.74219 14.1437 6.09473 16.4648 8.94678 16.4648C10.2314 16.4648 11.0239 15.9724 11.9895 15.364C12.9554 15.9726 13.7706 16.4652 15.0651 16.4652C15.2122 16.4652 15.3578 16.459 15.5017 16.4469C18.1525 16.2267 20.2422 13.9982 20.2422 11.2907V8.06055L20.2375 8.06145ZM6.66196 11.5519C6.7876 12.6833 7.78662 13.5634 8.94678 13.5634C9.44713 13.5634 10.0397 13.1768 10.5553 12.8405C10.7072 12.7413 10.8525 12.6466 10.9867 12.5673C10.31 12.1611 9.25293 11.6292 7.86077 11.6292C7.46436 11.6292 7.05825 11.6002 6.66196 11.5519ZM13.7076 13.0017C14.2595 13.3509 14.5956 13.5634 15.0698 13.5634C15.1327 13.5634 15.195 13.5608 15.2567 13.5558C16.3301 13.4652 17.199 12.6209 17.3177 11.5524C17.1792 11.5693 17.0394 11.5838 16.8993 11.5955C16.6387 11.6173 16.3767 11.6296 16.1189 11.6296C15.9658 11.6296 15.8166 11.6361 15.6714 11.6483C14.5072 11.7467 13.5986 12.2066 12.9976 12.5673C13.2748 12.7279 13.5056 12.874 13.7076 13.0017Z" fill="white"/>
  </g>
</svg>
